<svg width="242" height="66" xmlns="http://www.w3.org/2000/svg" xmlns:xlink="http://www.w3.org/1999/xlink" xml:space="preserve" overflow="hidden"><defs><clipPath id="clip0"><rect x="519" y="327" width="242" height="66"/></clipPath></defs><g clip-path="url(#clip0)" transform="translate(-519 -327)"><path d="M1261.81 693.887 1234.32 693.887 1234.32 666.404 1250.39 666.404 1250.39 677.436 1261.81 677.436 1261.81 693.887ZM1234.71 693.501 1261.42 693.501 1261.42 678.018 1250 678.018 1250 666.984 1234.71 666.984 1234.71 693.501ZM1260.45 692.534 1235.68 692.534 1235.68 667.759 1249.03 667.759 1249.03 678.791 1260.45 678.791 1260.45 692.534Z" transform="matrix(1.00538 0 0 1 -609.032 -338.824)"/><path d="M1290.45 694.081 1263.74 694.081 1277.09 666.21 1290.45 694.081ZM1264.51 693.695 1289.87 693.695 1277.09 667.373 1264.51 693.695ZM1288.32 692.726 1265.87 692.726 1277.09 669.694 1288.32 692.726Z" transform="matrix(1.00538 0 0 1 -609.032 -338.824)"/><path d="M1315.61 694.275 1309.03 694.275C1307.29 694.275 1305.74 694.275 1304.19 694.081 1303.03 694.081 1302.06 693.887 1301.29 693.695 1300.51 693.501 1299.55 693.307 1298.58 692.726 1296.64 691.952 1295.29 690.597 1294.13 689.05 1292.97 687.501 1292.19 685.565 1292 683.63 1291.8 682.469 1291.8 681.5 1291.8 680.34 1291.8 679.759 1291.8 679.179 1291.8 678.598 1292 676.855 1292.38 675.114 1292.97 673.759 1293.35 672.79 1293.93 671.824 1294.51 671.243 1295.68 669.5 1297.03 668.533 1298.58 667.759 1299.16 667.373 1299.93 667.178 1300.71 666.984 1300.9 666.984 1301.29 666.792 1302.06 666.792 1302.84 666.598 1303.42 666.598 1303.8 666.598 1304.97 666.598 1306.32 666.404 1307.87 666.404L1315.61 666.404 1315.61 679.371 1315.61 694.275ZM1307.87 666.792C1306.32 666.792 1305.16 666.792 1303.8 666.984 1303.42 666.984 1302.84 666.984 1302.26 667.178 1301.48 667.373 1301.09 667.373 1301.09 667.373L1301.09 667.373C1300.32 667.565 1299.55 667.759 1298.97 668.145 1297.42 668.92 1296.06 670.082 1294.9 671.437 1294.32 672.21 1293.93 672.984 1293.35 673.953 1292.77 675.308 1292.38 677.049 1292.19 678.791 1292.19 679.371 1292.19 679.953 1292.19 680.34 1292.19 681.5 1292.38 682.661 1292.58 683.63 1292.97 685.565 1293.55 687.306 1294.71 688.856 1295.68 690.405 1297.22 691.565 1298.97 692.34 1299.93 692.726 1300.71 693.115 1301.48 693.115 1302.26 693.307 1303.22 693.501 1304.39 693.501 1305.74 693.501 1307.29 693.695 1309.03 693.695L1315.22 693.695 1315.22 679.179 1315.22 666.792 1307.87 666.792ZM1314.26 692.726 1309.03 692.726C1307.29 692.726 1305.74 692.726 1304.39 692.534 1303.42 692.534 1302.45 692.34 1301.68 692.146 1300.9 691.952 1300.13 691.76 1299.35 691.371 1297.8 690.597 1296.45 689.436 1295.48 688.081 1294.51 686.534 1293.74 684.985 1293.55 683.244 1293.35 682.275 1293.16 681.308 1293.16 680.146 1293.16 679.565 1293.16 679.179 1293.16 678.598 1293.35 677.049 1293.74 675.5 1294.32 674.145 1294.71 673.179 1295.29 672.404 1295.68 671.824 1296.64 670.663 1297.8 669.694 1299.35 668.92 1299.93 668.728 1300.51 668.339 1301.29 668.145L1301.68 667.953C1301.87 667.953 1302.06 667.953 1302.45 667.759 1303.22 667.759 1303.61 667.565 1304 667.565L1304.19 667.565C1305.35 667.565 1306.71 667.373 1308.06 667.373L1314.45 667.373 1314.45 678.985 1314.45 692.726Z" transform="matrix(1.00538 0 0 1 -609.032 -338.824)"/><path d="M1341.74 694.081 1318.51 694.081 1318.51 666.404 1341.93 666.404 1334.97 680.534 1341.74 694.081ZM1318.9 693.501 1340.97 693.501 1334.39 680.534 1341.16 666.984 1319.1 666.984 1319.1 693.501ZM1339.42 692.534 1319.87 692.534 1319.87 667.759 1339.61 667.759 1333.42 680.534 1339.42 692.534Z" transform="matrix(1.00538 0 0 1 -609.032 -338.824)"/><path d="M1265.87 731.243 1239.16 731.243 1252.51 703.372 1265.87 731.243ZM1239.93 730.855 1265.29 730.855 1252.51 704.727 1239.93 730.855ZM1263.74 729.888 1241.48 729.888 1252.71 706.856 1263.74 729.888Z" transform="matrix(1.00538 0 0 1 -609.032 -338.824)"/><path d="M1295.68 731.437 1267.8 731.437 1267.8 703.566 1282.13 708.791 1295.68 703.566 1295.68 731.437ZM1268.19 730.855 1295.09 730.855 1295.09 704.146 1281.93 709.178 1268.19 704.146 1268.19 730.855ZM1294.32 729.888 1269.16 729.888 1269.16 705.501 1282.13 710.341 1294.32 705.695 1294.32 729.888Z" transform="matrix(1.00538 0 0 1 -609.032 -338.824)"/><path d="M1237.61 731.437 1209.55 731.437 1209.55 703.566 1223.87 708.791 1237.42 703.566 1237.42 731.437ZM1210.13 730.855 1237.03 730.855 1237.03 704.146 1223.87 709.178 1210.13 704.146 1210.13 730.855ZM1236.06 729.888 1210.9 729.888 1210.9 705.501 1223.87 710.341 1236.06 705.695 1236.06 729.888Z" transform="matrix(1.00538 0 0 1 -609.032 -338.824)"/><path d="M1299.16 731.437 1299.16 703.76 1311.35 703.566C1312.51 703.566 1313.48 703.566 1314.26 703.566 1315.03 703.566 1315.61 703.76 1316.19 703.76 1316.77 703.76 1317.35 703.952 1317.93 704.34 1319.1 704.727 1320.06 705.501 1320.84 706.276 1321.61 707.242 1322 708.211 1322.19 709.178 1322.39 709.758 1322.39 710.341 1322.39 711.113L1322.39 711.888C1322.39 712.856 1322 713.823 1321.61 714.598 1321.42 715.178 1321.03 715.566 1320.64 715.952 1320.06 716.533 1319.68 716.921 1318.9 717.307 1319.68 717.694 1320.26 718.276 1320.84 718.856 1321.61 719.823 1322 720.792 1322.19 721.758 1322.39 722.339 1322.39 722.919 1322.39 723.694 1322.39 723.888 1322.39 724.274 1322.39 724.663 1322.39 725.629 1322 726.404 1321.61 727.372 1321.42 727.953 1321.03 728.339 1320.64 728.727 1319.87 729.502 1319.1 730.082 1318.13 730.663 1317.74 730.855 1317.16 731.049 1316.77 731.049 1316.58 731.049 1316.39 731.243 1316 731.243 1315.42 731.243 1315.22 731.243 1315.03 731.243 1314.26 731.243 1313.48 731.437 1312.51 731.437L1299.16 731.437ZM1299.55 704.146 1299.55 730.855 1311.93 730.855C1312.9 730.855 1313.68 730.855 1314.45 730.855 1314.64 730.855 1315.03 730.855 1315.42 730.663 1315.81 730.663 1316 730.663 1316.19 730.469L1316.19 730.469C1316.77 730.274 1317.16 730.274 1317.55 730.082 1318.51 729.694 1319.29 729.114 1320.06 728.339 1320.45 727.953 1320.64 727.565 1321.03 726.984 1321.42 726.212 1321.61 725.437 1321.81 724.468 1321.81 724.082 1321.81 723.888 1321.81 723.694 1321.81 723.113 1321.81 722.533 1321.61 721.953 1321.42 720.984 1320.84 720.017 1320.26 719.243 1319.68 718.662 1319.1 718.082 1318.13 717.502L1317.74 717.307 1318.13 717.113C1318.9 716.727 1319.48 716.339 1320.06 715.566 1320.45 715.178 1320.84 714.792 1321.03 714.211 1321.42 713.437 1321.61 712.662 1321.81 711.694L1321.81 710.921C1321.81 710.341 1321.81 709.758 1321.61 709.178 1321.42 708.211 1320.84 707.242 1320.26 706.468 1319.68 705.695 1318.71 705.113 1317.55 704.533 1316.97 704.34 1316.58 704.146 1316 704.146 1315.42 704.146 1314.84 703.952 1314.26 703.952 1313.29 703.952 1312.32 703.952 1311.35 703.952L1299.55 704.146ZM1300.51 729.888 1300.51 705.113 1311.35 705.113C1312.51 705.113 1313.48 705.113 1314.26 705.113 1314.84 705.113 1315.42 705.307 1316 705.307 1316.39 705.307 1316.97 705.501 1317.35 705.695 1318.32 706.082 1319.1 706.662 1319.68 707.242 1320.26 708.017 1320.64 708.791 1320.84 709.566 1320.84 710.146 1321.03 710.533 1321.03 711.113L1321.03 711.888C1321.03 712.662 1320.84 713.437 1320.45 714.017 1320.26 714.403 1319.87 714.792 1319.68 715.178 1319.1 715.758 1318.71 716.147 1317.93 716.339L1315.81 717.502 1317.93 718.662C1318.71 719.049 1319.29 719.437 1319.87 720.017 1320.45 720.792 1320.84 721.566 1321.03 722.339 1321.22 722.919 1321.22 723.308 1321.22 723.888 1321.22 724.082 1321.22 724.468 1321.22 724.663 1321.22 725.437 1320.84 726.212 1320.64 726.792 1320.45 727.178 1320.06 727.565 1319.87 727.953 1319.29 728.533 1318.51 729.114 1317.74 729.502 1317.35 729.694 1316.97 729.694 1316.58 729.888L1316 729.694C1315.81 729.694 1315.81 729.694 1315.61 729.694 1315.22 729.694 1314.84 729.694 1314.84 729.694L1314.64 729.694C1313.87 729.694 1313.1 729.888 1312.13 729.888L1300.51 729.888Z" transform="matrix(1.00538 0 0 1 -609.032 -338.824)"/><path d="M1208.77 694.081 1208.77 666.404 1220.96 666.21C1222.13 666.21 1223.09 666.21 1223.87 666.21 1224.64 666.21 1225.22 666.404 1225.8 666.404 1226.38 666.404 1226.97 666.598 1227.55 666.984 1228.71 667.373 1229.68 668.145 1230.45 668.92 1231.22 669.888 1231.61 670.855 1231.8 671.824 1232 672.404 1232 672.984 1232 673.759L1232 674.534C1232 675.5 1231.61 676.469 1231.22 677.243 1231.03 677.824 1230.64 678.21 1230.26 678.598 1229.68 679.179 1229.29 679.565 1228.51 679.953 1229.29 680.34 1229.87 680.92 1230.45 681.5 1231.22 682.469 1231.61 683.436 1231.8 684.404 1232 684.985 1232 685.565 1232 686.34 1232 686.534 1232 686.92 1232 687.306 1232 688.275 1231.61 689.05 1231.22 690.016 1231.03 690.597 1230.64 690.985 1230.26 691.371 1229.48 692.146 1228.71 692.726 1227.74 693.307 1227.35 693.501 1226.77 693.695 1226.38 693.695 1226.19 693.695 1226 693.887 1225.61 693.887 1225.03 693.887 1224.84 693.887 1224.64 693.887 1223.87 693.887 1223.09 694.081 1222.13 694.081L1208.77 694.081ZM1209.35 666.984 1209.35 693.695 1221.74 693.695C1222.71 693.695 1223.48 693.695 1224.26 693.695 1224.45 693.695 1224.84 693.695 1225.22 693.501 1225.61 693.501 1225.8 693.501 1226 693.307L1226 693.307C1226.58 693.115 1226.97 693.115 1227.35 692.92 1228.32 692.534 1229.09 691.952 1229.87 691.179 1230.26 690.791 1230.45 690.405 1230.84 689.824 1231.22 689.05 1231.42 688.275 1231.61 687.306 1231.61 686.92 1231.61 686.726 1231.61 686.534 1231.61 685.953 1231.61 685.371 1231.42 684.791 1231.22 683.824 1230.64 682.855 1230.06 682.081 1229.48 681.5 1228.9 680.92 1227.93 680.34L1227.55 680.146 1227.93 679.953C1228.71 679.565 1229.29 679.179 1229.87 678.404 1230.26 678.018 1230.64 677.63 1230.84 677.049 1231.22 676.275 1231.42 675.5 1231.61 674.534L1231.61 673.759C1231.61 673.179 1231.61 672.598 1231.42 672.018 1231.22 671.049 1230.64 670.082 1230.06 669.308 1229.48 668.533 1228.51 667.953 1227.35 667.373 1226.77 667.178 1226.38 666.984 1225.8 666.984 1225.22 666.984 1224.64 666.792 1224.06 666.792 1223.09 666.792 1222.13 666.792 1221.16 666.792L1209.35 666.984ZM1210.32 692.726 1210.32 667.953 1221.16 667.953C1222.32 667.953 1223.29 667.953 1224.06 667.953 1224.64 667.953 1225.22 668.145 1225.8 668.145 1226.19 668.145 1226.77 668.339 1227.16 668.533 1228.13 668.92 1228.9 669.5 1229.48 670.082 1230.06 670.855 1230.45 671.63 1230.64 672.404 1230.64 672.984 1230.84 673.373 1230.84 673.953L1230.84 674.728C1230.84 675.5 1230.64 676.275 1230.26 676.855 1230.06 677.243 1229.68 677.63 1229.48 678.018 1228.9 678.598 1228.51 678.985 1227.74 679.179L1225.61 680.34 1227.35 681.308C1228.13 681.695 1228.71 682.081 1229.29 682.661 1229.87 683.436 1230.26 684.21 1230.45 684.985 1230.64 685.565 1230.64 685.953 1230.64 686.534 1230.64 686.726 1230.64 687.114 1230.64 687.306 1230.64 688.081 1230.26 688.856 1230.06 689.436 1229.87 689.824 1229.48 690.211 1229.29 690.597 1228.71 691.179 1227.93 691.76 1227.16 692.146 1226.77 692.34 1226.38 692.34 1226 692.534L1225.8 692.726C1225.61 692.726 1225.61 692.726 1225.42 692.726 1225.03 692.726 1224.64 692.726 1224.64 692.726L1224.45 692.726C1223.67 692.726 1222.9 692.92 1221.93 692.92L1210.32 692.726Z" transform="matrix(1.00538 0 0 1 -609.032 -338.824)"/><path d="M1350.26 731.243 1323.35 731.243 1336.71 703.372 1350.26 731.243ZM1324.32 730.855 1349.67 730.855 1336.9 704.727 1324.32 730.855ZM1348.13 729.888 1325.68 729.888 1336.9 706.856 1348.13 729.888Z" transform="matrix(1.00538 0 0 1 -609.032 -338.824)"/><path d="M1142.97 667.953C1141.03 668.339 1139.29 669.308 1137.93 671.049 1132.71 677.243 1130.97 690.597 1134.06 701.05 1135.61 706.276 1138.32 711.501 1141.42 715.178 1142.97 716.921 1145.09 719.049 1146.64 720.404 1147.8 721.178 1150.32 722.919 1151.87 723.694 1157.87 726.984 1164.26 728.919 1172.39 729.502 1174.32 729.694 1178.58 729.694 1178.58 729.694 1178.58 729.694 1178 729.308 1177.22 728.727 1173.35 726.017 1171.03 724.468 1169.48 722.727 1167.16 720.404 1166.19 718.082 1166.38 715.566 1166.58 713.243 1167.55 711.113 1169.87 708.986 1171.61 707.242 1173.93 705.887 1175.87 705.501L1176.26 705.501 1176.45 706.856C1176.64 710.146 1177.22 711.501 1178.97 712.276 1180.32 712.856 1182.64 713.437 1184 713.243 1185.35 713.048 1186.13 712.662 1186.51 711.888 1186.71 711.501 1188.64 709.178 1188.84 709.178 1188.84 709.178 1189.03 709.372 1189.22 709.566 1190 710.727 1191.16 711.113 1192.71 710.921 1193.1 710.921 1193.29 710.921 1193.29 710.921 1193.29 711.113 1192.71 711.501 1191.93 712.082L1191.35 712.468 1191.74 712.468C1192.32 712.468 1193.29 712.276 1193.87 712.082 1194.26 711.888 1195.03 711.307 1195.03 711.113 1195.03 710.921 1195.22 710.921 1195.22 711.307 1195.42 711.888 1195.22 713.243 1194.84 714.017 1194.45 714.403 1194.64 714.403 1195.22 714.017 1196.58 712.856 1197.55 711.307 1197.35 709.952 1197.35 709.372 1196.77 708.403 1196.39 708.017 1196 707.631 1196 707.631 1195.42 707.631 1194.84 707.631 1194.64 707.631 1193.87 708.211 1192.71 708.791 1192.32 708.791 1191.93 708.791 1190.77 708.403 1189.22 705.695 1188.64 703.178 1188.26 701.823 1188.26 701.63 1188.64 701.823 1188.84 701.823 1189.03 702.017 1189.42 702.017 1190 702.211 1190 702.211 1190.19 702.791 1190.58 703.76 1190.77 704.34 1190.58 705.695L1190.58 706.856 1190.97 706.662C1191.55 706.468 1192.32 705.307 1192.71 704.727 1192.9 704.533 1193.1 704.146 1193.1 704.146 1193.1 704.146 1193.29 704.533 1193.29 704.727 1193.29 705.501 1193.1 706.468 1192.9 706.856 1192.71 707.05 1192.71 707.242 1192.71 707.242 1192.71 707.242 1193.1 707.05 1193.48 706.856 1194.64 706.276 1195.61 705.307 1196.19 703.952 1196.58 703.372 1196.77 702.597 1196.97 702.017L1197.16 701.05 1197.55 700.856C1198.71 700.47 1199.29 699.307 1199.48 698.34 1199.48 697.372 1199.48 696.985 1198.71 696.405 1197.35 695.05 1196.19 693.501 1195.42 691.565 1195.22 690.985 1194.84 690.405 1194.64 690.211L1194.26 689.824 1194.84 688.275C1195.61 685.565 1196 684.016 1196 682.275 1196 681.114 1195.81 680.34 1195.42 679.565 1195.03 678.985 1194.26 678.21 1193.68 678.018 1192.52 677.436 1192.32 677.243 1191.74 677.436 1190.77 677.436 1190.19 677.824 1188.45 678.985 1186.51 680.34 1184.77 681.114 1180.9 682.081L1178.97 682.661 1177.8 682.275C1174.13 680.726 1170.26 679.759 1166.19 679.759L1164.26 679.759 1162.71 678.598C1161.93 678.018 1158.84 675.888 1156.13 673.759 1151.09 670.082 1149.93 669.308 1148.38 668.728 1147.03 668.145 1146.06 667.953 1144.51 667.953 1143.93 667.759 1143.16 667.759 1142.97 667.953ZM1147.42 670.469C1148.19 670.663 1149.55 671.243 1150.51 672.018 1150.9 672.404 1152.45 673.759 1153.8 675.114 1156.51 677.824 1157.29 678.404 1158.45 679.371 1161.16 681.308 1165.22 683.63 1168.9 685.371 1171.03 686.34 1173.16 687.114 1172.58 686.726 1169.87 684.985 1168.71 684.016 1167.35 682.855 1166.58 682.081 1166.38 681.889 1166.58 681.889 1166.77 681.695 1168.71 681.889 1169.87 681.889 1172.39 682.081 1175.29 683.049 1177.03 684.016L1177.42 684.21 1177.42 685.179C1177.42 686.146 1177.8 686.92 1178 687.306L1178.19 687.501 1178.19 686.92C1178.19 685.565 1178.97 684.791 1180.13 684.791 1181.29 684.985 1182.64 685.759 1186.51 688.856 1187.68 689.824 1189.03 690.791 1189.42 691.179 1190.39 691.952 1191.74 692.726 1191.93 692.726 1191.93 692.726 1191.74 692.34 1191.35 691.952 1190.58 691.179 1190.19 690.597 1190.19 690.405 1190.19 690.405 1190.19 690.211 1190.39 690.405 1190.58 690.405 1190.97 690.405 1191.35 690.405L1191.93 690.405 1192.52 691.371C1193.68 693.501 1194.84 695.242 1196.19 696.597 1196.97 697.372 1197.16 697.566 1197.16 697.76 1196.97 698.146 1196.97 698.146 1196.19 697.952 1195.22 697.76 1194.45 697.76 1192.71 697.952 1190.77 698.34 1189.22 698.34 1188.26 697.952 1186.13 697.372 1185.35 696.597 1183.42 693.307 1182.26 691.371 1181.68 690.791 1180.51 690.405 1179.74 690.211 1179.16 690.211 1177.8 690.405 1176.84 690.597 1176.64 690.597 1176.06 690.405 1175.29 690.211 1174.71 690.016 1173.93 689.244L1173.35 688.661 1173.35 689.63C1173.55 692.534 1174.71 694.275 1177.42 695.824 1178.39 696.405 1179.16 696.985 1179.35 697.76 1179.74 698.532 1179.74 699.501 1179.35 701.05 1178.97 702.985 1178.97 704.727 1179.74 706.276 1180.51 708.597 1182.06 709.758 1184 709.372 1184.58 709.178 1185.16 709.372 1184.97 709.566 1184.97 709.952 1182.84 710.533 1181.48 710.533 1180.71 710.533 1180.51 710.533 1180.13 710.341 1179.55 709.952 1179.35 709.758 1179.16 708.597 1178.58 704.533 1177.61 700.47 1176.45 697.952 1175.29 695.436 1173.35 693.501 1171.03 692.34 1170.06 691.952 1168.71 691.371 1167.93 691.179 1167.55 691.179 1167.55 691.179 1168.51 691.565 1171.03 692.92 1172.77 694.662 1173.35 696.405L1173.55 696.791 1173.16 696.791C1172.58 696.791 1170.84 696.211 1169.87 695.824 1169.09 695.436 1167.55 694.856 1166.77 694.275 1165.03 693.115 1163.09 691.371 1162.32 690.211 1162.13 689.824 1161.93 689.436 1161.93 689.436 1161.93 689.436 1161.93 689.824 1162.13 690.211 1162.71 693.115 1165.42 695.63 1170.26 697.76 1171.03 698.146 1171.8 698.34 1172 698.532 1172.19 698.727 1172.58 698.727 1172.58 698.727 1172.58 698.921 1170.45 698.921 1169.48 698.727 1165.8 697.952 1161.55 694.469 1158.84 689.824 1158.45 689.244 1157.87 688.081 1157.48 687.114 1154.96 683.824 1153.42 681.308 1151.48 679.565 1149.55 677.824 1147.8 676.855 1145.29 676.663 1141.8 676.275 1139.87 678.21 1139.29 682.855 1139.09 684.791 1139.09 688.856 1139.48 690.985L1139.87 691.565 1139.87 690.597C1140.06 687.501 1140.45 685.565 1141.22 684.016 1142.19 681.889 1143.93 680.92 1146.06 681.114 1148 681.308 1150.13 683.63 1151.87 687.306 1152.26 688.081 1152.84 689.05 1152.84 689.63L1153.22 690.405 1152.64 691.179C1149.55 695.242 1147.61 702.017 1147.61 709.566 1147.61 713.243 1148 714.986 1149.35 718.082 1149.74 718.856 1149.74 719.049 1149.55 719.049 1149.35 719.049 1148 716.533 1147.42 714.792 1145.67 709.566 1145.09 703.566 1146.26 698.727 1146.84 696.017 1148 693.307 1148.97 691.76 1149.16 691.371 1149.35 691.179 1149.35 691.179 1149.35 690.985 1148 692.146 1147.22 692.92 1145.67 694.662 1144.32 696.985 1143.35 699.695 1142.77 701.63 1142.19 703.952 1142.19 705.695 1142.19 706.276 1142.19 706.662 1142.19 706.856 1142.19 707.05 1140.84 705.307 1140.06 703.76 1137.16 698.146 1135.8 689.63 1136.77 684.21 1137.16 682.661 1137.35 681.114 1137.93 679.565 1139.68 673.953 1142.19 670.663 1145.09 670.275 1145.67 670.275 1146.64 670.275 1147.42 670.469ZM1192.52 679.759C1192.52 679.953 1192.71 680.534 1192.71 681.114 1192.9 683.244 1192.32 685.759 1191.16 688.275L1190.77 689.05 1189.81 689.05 1188.84 689.05 1188.26 688.661C1187.87 688.275 1187.29 687.889 1186.9 687.501L1186.32 686.92 1186.9 686.34C1187.48 685.759 1187.87 685.179 1188.06 684.21 1188.06 684.016 1188.06 683.824 1188.06 683.824 1188.06 683.824 1187.87 684.016 1187.68 684.21 1186.51 685.371 1185.16 685.565 1182.84 684.404 1182.45 684.21 1181.87 684.016 1181.87 684.016 1181.87 684.016 1182.06 683.824 1182.45 683.824 1184.39 683.436 1187.48 681.889 1190.39 680.146 1191.93 679.371 1192.32 679.179 1192.52 679.759ZM1180.13 692.146C1180.32 692.146 1180.51 692.34 1180.51 692.34 1180.51 692.34 1180.32 692.534 1179.93 692.726 1179.35 692.92 1177.8 693.887 1178 693.887 1178 693.887 1178.39 693.887 1178.77 693.695 1180.13 693.307 1181.29 693.115 1181.87 693.501 1182.26 693.695 1182.84 694.275 1183.03 694.856L1183.22 695.436 1182.26 695.436C1181.48 695.436 1181.29 695.436 1180.51 695.63 1180.13 695.824 1179.55 696.017 1179.55 696.017 1179.35 696.017 1179.16 696.211 1179.16 696.211 1178.97 696.211 1179.35 695.436 1179.74 695.05 1179.93 695.05 1180.13 694.856 1180.51 694.662L1181.1 694.469 1180.71 694.469C1180.13 694.469 1178.97 694.469 1178.19 694.856 1177.8 695.05 1177.61 695.05 1177.22 694.856 1176.26 694.662 1176.26 694.275 1176.84 693.695L1177.22 693.307 1176.64 693.307C1175.87 693.307 1175.29 693.115 1175.09 692.726 1174.9 692.34 1174.9 692.34 1175.09 692.534 1175.68 692.726 1176.06 692.92 1176.84 692.92 1177.42 692.92 1178 692.92 1178.77 692.726 1179.55 691.952 1179.74 691.952 1180.13 692.146ZM1161.93 696.985C1163.48 698.34 1165.61 699.501 1168.71 700.275L1169.29 700.47 1168.71 700.662C1167.16 701.05 1166.19 701.63 1164.64 703.178L1163.48 704.34 1162.51 704.34C1160.19 704.146 1158.06 703.566 1156.13 702.211 1155.35 701.63 1153.61 700.081 1153.03 699.115 1152.64 698.34 1152.06 697.372 1152.06 697.372 1152.06 697.372 1152.45 697.566 1152.84 698.146 1155.35 700.662 1158.06 702.211 1160.77 702.791 1161.74 702.985 1162.13 702.985 1161.93 702.985 1161.55 702.791 1160.77 702.405 1160.58 702.017 1160 701.436 1159.8 701.05 1160 700.081 1160 699.501 1160.19 699.115 1160.38 698.727 1160.77 697.76 1161.35 696.597 1161.35 696.597 1161.16 696.405 1161.55 696.597 1161.93 696.985ZM1191.55 699.307C1191.74 699.501 1191.74 699.501 1191.74 700.275 1191.74 700.856 1191.74 701.242 1191.35 701.823L1190.97 702.405 1190.77 701.63C1190.77 701.242 1190.58 700.662 1190.39 700.275L1190.19 699.695 1190.58 699.501C1191.16 699.307 1191.35 699.307 1191.55 699.307ZM1153.03 701.63C1155.35 703.952 1158.45 705.113 1163.09 705.887 1163.29 705.887 1163.48 705.887 1163.48 705.887 1163.48 705.887 1163.48 706.276 1163.29 706.662 1163.09 707.823 1162.9 709.372 1162.9 711.888L1162.9 714.211 1161.35 714.211C1157.67 714.017 1154.58 713.243 1152.45 711.888 1151.09 711.113 1149.93 709.758 1151.09 710.341 1152.84 711.307 1155.74 712.276 1158.45 712.468 1159.8 712.662 1159.8 712.662 1159.03 712.276 1158.64 712.082 1158.06 711.888 1158.06 711.694L1157.67 711.307 1157.87 709.178C1158.06 708.017 1158.06 706.856 1158.06 706.662L1158.06 706.276 1157.29 705.887C1154.96 704.727 1152.64 702.597 1152.06 701.436 1151.87 700.856 1151.67 700.662 1151.87 700.662 1152.06 700.856 1152.45 701.242 1153.03 701.63ZM1194.45 701.63C1194.45 702.211 1194.45 702.405 1194.26 702.791 1194.06 703.178 1193.87 703.372 1193.87 703.372 1193.87 703.372 1193.68 703.178 1193.68 702.985 1193.68 702.791 1193.68 702.211 1193.48 702.017 1193.29 701.436 1193.29 701.436 1193.48 701.242 1193.68 701.05 1193.68 701.05 1194.06 701.05L1194.45 701.05 1194.45 701.63ZM1172.58 702.791C1173.16 702.791 1173.74 702.985 1173.74 702.985 1173.74 702.985 1173.35 703.372 1172.77 703.76 1169.29 706.082 1166.19 709.178 1165.03 711.888 1164.64 712.856 1164.45 712.662 1164.64 710.727 1165.03 706.082 1166.58 703.566 1169.48 702.791 1170.26 702.791 1171.03 702.791 1172.58 702.791ZM1186.32 704.34C1187.1 704.727 1187.68 705.501 1187.87 706.082 1187.87 706.276 1187.87 706.468 1187.1 707.05 1186.13 707.823 1185.93 707.823 1186.13 707.437 1186.13 707.242 1186.51 705.695 1186.51 705.501 1186.51 705.501 1186.32 705.501 1185.93 705.695 1185.35 705.887 1184.19 706.082 1184.19 705.887 1184.19 705.887 1184.39 705.501 1184.58 704.921 1185.55 703.952 1185.55 703.952 1186.32 704.34ZM1184.58 707.823C1184.39 708.403 1183.81 708.986 1183.42 708.986 1183.03 709.178 1182.84 708.986 1182.45 708.597 1182.06 708.211 1182.06 708.017 1182.45 708.017 1183.03 708.017 1183.61 707.823 1184.19 707.437 1184.39 707.242 1184.77 707.05 1184.77 707.242 1184.77 707.437 1184.58 707.631 1184.58 707.823ZM1186.13 709.178C1186.13 709.178 1186.13 709.372 1185.93 709.372 1185.74 709.566 1185.35 709.758 1185.35 709.372 1185.55 709.372 1186.13 709.178 1186.13 709.178ZM1160.58 715.758C1161.93 716.147 1163.09 716.147 1163.09 716.339 1163.09 716.339 1163.29 716.727 1163.48 717.113 1165.61 720.984 1168.13 724.468 1169.87 725.823L1170.64 726.404 1169.68 726.404C1166.38 726.404 1160.77 725.243 1156.9 723.694 1154.77 722.727 1152.84 721.566 1152.26 720.792 1151.87 720.404 1152.06 720.211 1152.45 720.404 1152.84 720.792 1154.96 721.758 1155.74 721.953 1157.48 722.727 1160.19 723.308 1161.74 723.502L1162.32 723.502 1161.74 723.113C1159.61 721.566 1158.06 719.823 1157.67 718.276 1157.48 717.694 1157.29 715.758 1157.48 715.566 1157.48 715.372 1157.67 715.372 1157.87 715.372 1157.87 715.372 1159.22 715.566 1160.58 715.758Z" transform="matrix(1.00538 0 0 1 -609.032 -338.824)"/><path d="M1184.19 688.275C1183.81 688.469 1183.61 690.016 1183.81 690.985L1183.81 691.179 1183.81 690.791C1184 690.016 1184 690.016 1184.19 689.824 1184.39 689.824 1184.58 690.016 1185.35 690.791L1186.32 691.76 1186.32 692.534C1186.32 693.307 1186.51 693.887 1186.9 694.469 1187.1 694.662 1187.1 694.856 1187.1 694.856 1187.1 694.856 1186.32 694.469 1185.74 694.081L1185.35 693.695 1185.74 694.275C1186.32 695.436 1187.1 696.017 1188.06 696.017 1188.64 696.017 1189.81 695.824 1190.39 695.63 1190.58 695.436 1190.97 695.436 1191.55 695.436L1192.32 695.436 1191.93 695.242C1191.74 695.05 1191.35 694.856 1191.35 694.856 1190.39 694.081 1188.45 692.146 1186.71 690.016 1185.55 688.661 1184.77 687.889 1184.58 687.889 1184.39 688.275 1184.39 688.275 1184.19 688.275ZM1188.26 693.887C1188.64 694.275 1188.84 694.662 1188.84 694.662 1188.84 694.662 1188.45 694.662 1188.26 694.662 1188.06 694.662 1187.87 694.469 1187.87 694.275 1187.68 693.887 1187.48 693.307 1187.68 693.307 1187.68 693.115 1188.06 693.501 1188.26 693.887Z" transform="matrix(1.00538 0 0 1 -609.032 -338.824)"/></g></svg>